<svg width="2000" height="416" viewBox="0 0 2000 416" fill="none" xmlns="http://www.w3.org/2000/svg">
<rect width="2000" height="416" fill="white"/>
<path d="M156.436 280.8H0.000946999L41.717 416H198.152L156.436 280.8Z" fill="#076F81"/>
<path d="M156.435 0H312.871L156.435 280.8H0L156.435 0Z" fill="#18C5E1"/>
<path d="M156.436 280.8L312.871 0L354.587 135.2L198.152 416L156.436 280.8Z" fill="url(#paint0_linear)"/>
<path d="M312.872 135.2H156.436L198.153 1.43051e-05H354.588L312.872 135.2Z" fill="url(#paint1_linear)"/>
<path d="M312.871 416H469.306L312.871 135.2H156.436L312.871 416Z" fill="url(#paint2_linear)"/>
<path d="M312.869 135.2L469.304 416L511.021 280.8L354.585 1.52588e-05L312.869 135.2Z" fill="url(#paint3_linear)"/>
<rect x="1937.88" y="62.5" width="62.1242" height="62" fill="#FDA554"/>
<path d="M1937.88 199.692C1937.88 225.728 1930.73 245.788 1916.44 259.873C1902.21 273.958 1882.19 281 1856.36 281H1806.16V125H1859.86C1884.77 125 1903.98 131.402 1917.5 144.207C1931.08 157.011 1937.88 175.506 1937.88 199.692ZM1894.36 201.186C1894.36 186.888 1891.53 176.289 1885.87 169.389C1880.28 162.488 1871.75 159.038 1860.29 159.038H1848.08V246.428H1857.42C1870.16 246.428 1879.5 242.729 1885.44 235.331C1891.39 227.862 1894.36 216.48 1894.36 201.186Z" fill="#1E2940"/>
<path d="M1653.48 281V125H1695.41V246.962H1755.17V281H1653.48Z" fill="#1E2940"/>
<path d="M1545.29 281V125H1587.43V281H1545.29Z" fill="#1E2940"/>
<path d="M1480.42 125V217.632C1480.42 237.772 1474.74 253.386 1463.36 264.474C1452.05 275.491 1435.71 281 1414.35 281C1393.48 281 1377.43 275.632 1366.19 264.895C1355.02 254.158 1349.44 238.719 1349.44 218.579V125H1391V215.316C1391 226.193 1393.03 234.088 1397.08 239C1401.13 243.912 1407.09 246.368 1414.98 246.368C1423.43 246.368 1429.54 243.947 1433.31 239.105C1437.15 234.193 1439.07 226.193 1439.07 215.105V125H1480.42Z" fill="#1E2940"/>
<path d="M1172.88 125H1227.01C1248.1 125 1263.74 128.166 1273.93 134.497C1284.19 140.756 1289.32 150.538 1289.32 163.84C1289.32 172.59 1287.09 180.059 1282.63 186.248C1278.17 192.436 1272.3 196.42 1265.01 198.198V199.265C1274.64 201.826 1281.61 206.094 1285.92 212.07C1290.24 218.045 1292.4 225.799 1292.4 235.331C1292.4 249.487 1287.09 260.655 1276.48 268.836C1265.93 276.945 1251.53 281 1233.28 281H1172.88V125ZM1214.81 184.86H1227.44C1233.45 184.86 1238.09 183.616 1241.34 181.126C1244.67 178.636 1246.33 174.937 1246.33 170.029C1246.33 161.279 1239.75 156.904 1226.59 156.904H1214.81V184.86ZM1214.81 215.698V248.456H1229.56C1242.65 248.456 1249.2 242.907 1249.2 231.81C1249.2 226.617 1247.43 222.633 1243.89 219.859C1240.42 217.085 1235.36 215.698 1228.71 215.698H1214.81Z" fill="#1E2940"/>
<path d="M1053.36 182.833L1080.11 125H1125.54L1074.49 220.073V281H1032.24V221.353L981.189 125H1026.83L1053.36 182.833Z" fill="#1E2940"/>
<path d="M933.897 281H878.917L822.238 171.096H821.283C822.627 188.382 823.299 201.577 823.299 210.683V281H786.15V125H840.918L897.385 233.41H898.022C897.031 217.689 896.536 205.063 896.536 195.531V125H933.897V281Z" fill="#1E2940"/>
<path d="M692.682 281L685.071 251.883H634.861L627.038 281H581.162L631.584 125H687.291L738.347 281H692.682ZM676.403 217.452L669.744 191.948C668.193 186.281 666.291 178.948 664.036 169.951C661.851 160.954 660.406 154.507 659.702 150.61C659.067 154.223 657.799 160.174 655.896 168.463C654.064 176.752 649.941 193.082 643.529 217.452H676.403Z" fill="#1E2940"/>
<defs>
<linearGradient id="paint0_linear" x1="232.046" y1="98.8" x2="156.845" y2="559.067" gradientUnits="userSpaceOnUse">
<stop stop-color="#18C5E1"/>
<stop offset="1" stop-color="#076F81"/>
</linearGradient>
<linearGradient id="paint1_linear" x1="302.443" y1="109.2" x2="110.205" y2="-153.911" gradientUnits="userSpaceOnUse">
<stop stop-color="#FDA554"/>
<stop offset="1" stop-color="#FB5F7D"/>
</linearGradient>
<linearGradient id="paint2_linear" x1="312.871" y1="416" x2="276.57" y2="25.9814" gradientUnits="userSpaceOnUse">
<stop stop-color="#D67E2D"/>
<stop offset="1" stop-color="#C5225D"/>
</linearGradient>
<linearGradient id="paint3_linear" x1="497.984" y1="208" x2="-296.044" y2="-272.357" gradientUnits="userSpaceOnUse">
<stop stop-color="#FDA554"/>
<stop offset="1" stop-color="#E80D37"/>
</linearGradient>
</defs>
</svg>
